<?xml version="1.0" encoding="UTF-8"?>
<svg xmlns="http://www.w3.org/2000/svg" viewBox="0 0 1600 600" role="img" aria-label="PlanExe"><rect width="1600" height="600" fill="#0b1020"/><g stroke="#ffffff" stroke-width="1" fill="none" opacity="0.16" shape-rendering="geometricPrecision"><line x1="610" y1="-1885.8181818181818" x2="4610" y2="477.81818181818176"/><line x1="544" y1="-1846.8181818181818" x2="4544" y2="516.8181818181818"/><line x1="478" y1="-1807.8181818181818" x2="4478" y2="555.8181818181818"/><line x1="412" y1="-1768.8181818181818" x2="4412" y2="594.8181818181818"/><line x1="346" y1="-1729.8181818181818" x2="4346" y2="633.8181818181818"/><line x1="280" y1="-1690.8181818181818" x2="4280" y2="672.8181818181818"/><line x1="214" y1="-1651.8181818181818" x2="4214" y2="711.8181818181818"/><line x1="148" y1="-1612.8181818181818" x2="4148" y2="750.8181818181818"/><line x1="82" y1="-1573.8181818181818" x2="4082" y2="789.8181818181818"/><line x1="16" y1="-1534.8181818181818" x2="4016" y2="828.8181818181818"/><line x1="-50" y1="-1495.8181818181818" x2="3950" y2="867.8181818181818"/><line x1="-116" y1="-1456.8181818181818" x2="3884" y2="906.8181818181818"/><line x1="-182" y1="-1417.8181818181818" x2="3818" y2="945.8181818181818"/><line x1="-248" y1="-1378.8181818181818" x2="3752" y2="984.8181818181818"/><line x1="-314" y1="-1339.8181818181818" x2="3686" y2="1023.8181818181818"/><line x1="-380" y1="-1300.8181818181818" x2="3620" y2="1062.8181818181818"/><line x1="-446" y1="-1261.8181818181818" x2="3554" y2="1101.8181818181818"/><line x1="-512" y1="-1222.8181818181818" x2="3488" y2="1140.8181818181818"/><line x1="-578" y1="-1183.8181818181818" x2="3422" y2="1179.8181818181818"/><line x1="-644" y1="-1144.8181818181818" x2="3356" y2="1218.8181818181818"/><line x1="-710" y1="-1105.8181818181818" x2="3290" y2="1257.8181818181818"/><line x1="-776" y1="-1066.8181818181818" x2="3224" y2="1296.8181818181818"/><line x1="-842" y1="-1027.8181818181818" x2="3158" y2="1335.8181818181818"/><line x1="-908" y1="-988.8181818181818" x2="3092" y2="1374.8181818181818"/><line x1="-974" y1="-949.8181818181818" x2="3026" y2="1413.8181818181818"/><line x1="-1040" y1="-910.8181818181818" x2="2960" y2="1452.8181818181818"/><line x1="-1106" y1="-871.8181818181818" x2="2894" y2="1491.8181818181818"/><line x1="-1172" y1="-832.8181818181818" x2="2828" y2="1530.8181818181818"/><line x1="-1238" y1="-793.8181818181818" x2="2762" y2="1569.8181818181818"/><line x1="-1304" y1="-754.8181818181818" x2="2696" y2="1608.8181818181818"/><line x1="-1370" y1="-715.8181818181818" x2="2630" y2="1647.8181818181818"/><line x1="-1436" y1="-676.8181818181818" x2="2564" y2="1686.8181818181818"/><line x1="-1502" y1="-637.8181818181818" x2="2498" y2="1725.8181818181818"/><line x1="-1568" y1="-598.8181818181818" x2="2432" y2="1764.8181818181818"/><line x1="-1634" y1="-559.8181818181818" x2="2366" y2="1803.8181818181818"/><line x1="-1700" y1="-520.8181818181818" x2="2300" y2="1842.8181818181818"/><line x1="-1766" y1="-481.81818181818176" x2="2234" y2="1881.8181818181818"/><line x1="-1832" y1="-442.81818181818176" x2="2168" y2="1920.8181818181818"/><line x1="-1898" y1="-403.81818181818176" x2="2102" y2="1959.8181818181818"/><line x1="-1964" y1="-364.81818181818176" x2="2036" y2="1998.8181818181818"/><line x1="-2030" y1="-325.81818181818176" x2="1970" y2="2037.8181818181818"/><line x1="-2096" y1="-286.81818181818176" x2="1904" y2="2076.818181818182"/><line x1="-2162" y1="-247.81818181818176" x2="1838" y2="2115.818181818182"/><line x1="-2228" y1="-208.81818181818176" x2="1772" y2="2154.818181818182"/><line x1="-2294" y1="-169.81818181818176" x2="1706" y2="2193.818181818182"/><line x1="-2360" y1="-130.81818181818176" x2="1640" y2="2232.818181818182"/><line x1="-2426" y1="-91.81818181818176" x2="1574" y2="2271.818181818182"/><line x1="-2492" y1="-52.818181818181756" x2="1508" y2="2310.818181818182"/><line x1="-2558" y1="-13.818181818181756" x2="1442" y2="2349.818181818182"/><line x1="-2624" y1="25.181818181818244" x2="1376" y2="2388.818181818182"/><line x1="-2690" y1="64.18181818181824" x2="1310" y2="2427.818181818182"/><line x1="-2756" y1="103.18181818181824" x2="1244" y2="2466.818181818182"/><line x1="-2822" y1="142.18181818181824" x2="1178" y2="2505.818181818182"/><line x1="-2888" y1="181.18181818181824" x2="1112" y2="2544.818181818182"/><line x1="1090" y1="-1885.8181818181818" x2="-2910" y2="477.81818181818176"/><line x1="1156" y1="-1846.8181818181818" x2="-2844" y2="516.8181818181818"/><line x1="1222" y1="-1807.8181818181818" x2="-2778" y2="555.8181818181818"/><line x1="1288" y1="-1768.8181818181818" x2="-2712" y2="594.8181818181818"/><line x1="1354" y1="-1729.8181818181818" x2="-2646" y2="633.8181818181818"/><line x1="1420" y1="-1690.8181818181818" x2="-2580" y2="672.8181818181818"/><line x1="1486" y1="-1651.8181818181818" x2="-2514" y2="711.8181818181818"/><line x1="1552" y1="-1612.8181818181818" x2="-2448" y2="750.8181818181818"/><line x1="1618" y1="-1573.8181818181818" x2="-2382" y2="789.8181818181818"/><line x1="1684" y1="-1534.8181818181818" x2="-2316" y2="828.8181818181818"/><line x1="1750" y1="-1495.8181818181818" x2="-2250" y2="867.8181818181818"/><line x1="1816" y1="-1456.8181818181818" x2="-2184" y2="906.8181818181818"/><line x1="1882" y1="-1417.8181818181818" x2="-2118" y2="945.8181818181818"/><line x1="1948" y1="-1378.8181818181818" x2="-2052" y2="984.8181818181818"/><line x1="2014" y1="-1339.8181818181818" x2="-1986" y2="1023.8181818181818"/><line x1="2080" y1="-1300.8181818181818" x2="-1920" y2="1062.8181818181818"/><line x1="2146" y1="-1261.8181818181818" x2="-1854" y2="1101.8181818181818"/><line x1="2212" y1="-1222.8181818181818" x2="-1788" y2="1140.8181818181818"/><line x1="2278" y1="-1183.8181818181818" x2="-1722" y2="1179.8181818181818"/><line x1="2344" y1="-1144.8181818181818" x2="-1656" y2="1218.8181818181818"/><line x1="2410" y1="-1105.8181818181818" x2="-1590" y2="1257.8181818181818"/><line x1="2476" y1="-1066.8181818181818" x2="-1524" y2="1296.8181818181818"/><line x1="2542" y1="-1027.8181818181818" x2="-1458" y2="1335.8181818181818"/><line x1="2608" y1="-988.8181818181818" x2="-1392" y2="1374.8181818181818"/><line x1="2674" y1="-949.8181818181818" x2="-1326" y2="1413.8181818181818"/><line x1="2740" y1="-910.8181818181818" x2="-1260" y2="1452.8181818181818"/><line x1="2806" y1="-871.8181818181818" x2="-1194" y2="1491.8181818181818"/><line x1="2872" y1="-832.8181818181818" x2="-1128" y2="1530.8181818181818"/><line x1="2938" y1="-793.8181818181818" x2="-1062" y2="1569.8181818181818"/><line x1="3004" y1="-754.8181818181818" x2="-996" y2="1608.8181818181818"/><line x1="3070" y1="-715.8181818181818" x2="-930" y2="1647.8181818181818"/><line x1="3136" y1="-676.8181818181818" x2="-864" y2="1686.8181818181818"/><line x1="3202" y1="-637.8181818181818" x2="-798" y2="1725.8181818181818"/><line x1="3268" y1="-598.8181818181818" x2="-732" y2="1764.8181818181818"/><line x1="3334" y1="-559.8181818181818" x2="-666" y2="1803.8181818181818"/><line x1="3400" y1="-520.8181818181818" x2="-600" y2="1842.8181818181818"/><line x1="3466" y1="-481.81818181818176" x2="-534" y2="1881.8181818181818"/><line x1="3532" y1="-442.81818181818176" x2="-468" y2="1920.8181818181818"/><line x1="3598" y1="-403.81818181818176" x2="-402" y2="1959.8181818181818"/><line x1="3664" y1="-364.81818181818176" x2="-336" y2="1998.8181818181818"/><line x1="3730" y1="-325.81818181818176" x2="-270" y2="2037.8181818181818"/><line x1="3796" y1="-286.81818181818176" x2="-204" y2="2076.818181818182"/><line x1="3862" y1="-247.81818181818176" x2="-138" y2="2115.818181818182"/><line x1="3928" y1="-208.81818181818176" x2="-72" y2="2154.818181818182"/><line x1="3994" y1="-169.81818181818176" x2="-6" y2="2193.818181818182"/><line x1="4060" y1="-130.81818181818176" x2="60" y2="2232.818181818182"/><line x1="4126" y1="-91.81818181818176" x2="126" y2="2271.818181818182"/><line x1="4192" y1="-52.818181818181756" x2="192" y2="2310.818181818182"/><line x1="4258" y1="-13.818181818181756" x2="258" y2="2349.818181818182"/><line x1="4324" y1="25.181818181818244" x2="324" y2="2388.818181818182"/><line x1="4390" y1="64.18181818181824" x2="390" y2="2427.818181818182"/><line x1="4456" y1="103.18181818181824" x2="456" y2="2466.818181818182"/><line x1="4522" y1="142.18181818181824" x2="522" y2="2505.818181818182"/><line x1="4588" y1="181.18181818181824" x2="588" y2="2544.818181818182"/></g><circle cx="1444" cy="167" r="3" fill="#6aa3ff" opacity="0.95"/><circle cx="1510" cy="128" r="3" fill="#6aa3ff" opacity="0.95"/><circle cx="256" cy="479" r="3" fill="#6aa3ff" opacity="0.95"/><circle cx="454" cy="206" r="3" fill="#6aa3ff" opacity="0.95"/><circle cx="718" cy="128" r="3" fill="#6aa3ff" opacity="0.95"/><circle cx="190" cy="440" r="3" fill="#6aa3ff" opacity="0.95"/><circle cx="388" cy="245" r="3" fill="#6aa3ff" opacity="0.95"/><circle cx="1114" cy="206" r="3" fill="#6aa3ff" opacity="0.95"/><circle cx="58" cy="206" r="3" fill="#6aa3ff" opacity="0.95"/><circle cx="1048" cy="89" r="3" fill="#6aa3ff" opacity="0.95"/><circle cx="1444" cy="323" r="3" fill="#6aa3ff" opacity="0.95"/><circle cx="586" cy="128" r="3" fill="#6aa3ff" opacity="0.95"/><circle cx="1180" cy="167" r="3" fill="#6aa3ff" opacity="0.95"/><circle cx="58" cy="128" r="3" fill="#6aa3ff" opacity="0.95"/><circle cx="1180" cy="557" r="3" fill="#6aa3ff" opacity="0.95"/><circle cx="652" cy="557" r="3" fill="#6aa3ff" opacity="0.95"/><g transform="translate(800 300) scale(0.75) translate(-255 -255)"><path d="M 209 434 L 209 454 L 227 464 L 227 444 Z" fill="#ffffff"/><path d="M 172 412 L 171 432 L 189 443 L 189 422 Z" fill="#ffffff"/><path d="M 209 391 L 209 411 L 227 421 L 227 401 Z" fill="#ffffff"/><path d="M 134 391 L 134 411 L 152 421 L 152 401 Z" fill="#ffffff"/><path d="M 433 347 L 433 368 L 450 378 L 450 357 Z" fill="#ffffff"/><path d="M 209 347 L 209 368 L 227 378 L 227 358 Z" fill="#ffffff"/><path d="M 433 218 L 433 239 L 450 249 L 450 228 Z" fill="#ffffff"/><path d="M 283 46 L 283 367 L 450 464 L 450 400 L 367 353 L 338 335 L 339 271 L 450 335 L 450 271 L 338 206 L 339 142 L 343 143 L 450 205 L 450 141 L 289 48 Z" fill="#ffffff"/><path d="M 60 46 L 60 368 L 111 398 L 115 399 L 116 271 L 227 335 L 227 142 Z" fill="#ffffff"/><path d="M 116 142 L 171 174 L 170 239 L 115 206 Z" fill="#0b1020"/></g><g transform="translate(800 300) scale(0.75) translate(-255 -255)"><text font-family="ui-sans-serif, system-ui, -apple-system, BlinkMacSystemFont, &quot;Segoe UI&quot;, Arial, sans-serif" font-weight="800" font-size="53.33" letter-spacing="0.360em" text-anchor="start" fill="#6aa3ff" x="60" y="413.3333333333333" dominant-baseline="hanging" transform="translate(60 413.3333333333333) skewY(30.5) translate(-60 -413.3333333333333)">PLAN</text><text font-family="ui-sans-serif, system-ui, -apple-system, BlinkMacSystemFont, &quot;Segoe UI&quot;, Arial, sans-serif" font-weight="800" font-size="53.33" letter-spacing="0.360em" text-anchor="start" fill="#6aa3ff" x="283" y="413.3333333333333" dominant-baseline="hanging" transform="translate(283 413.3333333333333) skewY(30.5) translate(-283 -413.3333333333333)">EXE</text></g></svg>